<?xml version="1.0" encoding="UTF-8" standalone="no"?>
<svg
   xmlns:svg="http://www.w3.org/2000/svg"
   xmlns="http://www.w3.org/2000/svg"
   height="1024pt"
   viewBox=".5 -.2 1023 1024.1"
   width="1024pt"
   version="1.1">
  <path
     d="m478.5.6c-2.2.2-9.2.9-15.5 1.4-145.3 13.1-281.4 91.5-367.6 212-48 67-78.7 143-90.3 223.5-4.1 28.1-4.6 36.4-4.6 74.5s.5 46.4 4.6 74.5c27.8 192.1 164.5 353.5 349.9 413.3 33.2 10.7 68.2 18 108 22.4 15.5 1.7 82.5 1.7 98 0 68.7-7.6 126.9-24.6 184.3-53.9 8.8-4.5 10.5-5.7 9.3-6.7-.8-.6-38.3-50.9-83.3-111.7l-81.8-110.5-102.5-151.7c-56.4-83.4-102.8-151.6-103.2-151.6-.4-.1-.8 67.3-1 149.6-.3 144.1-.4 149.9-2.2 153.3-2.6 4.9-4.6 6.9-8.8 9.1-3.2 1.6-6 1.9-21.1 1.9h-17.3l-4.6-2.9c-3-1.9-5.2-4.4-6.7-7.3l-2.1-4.5.2-200.5.3-200.6 3.1-3.9c1.6-2.1 5-4.8 7.4-6.1 4.1-2 5.7-2.2 23-2.2 20.4 0 23.8.8 29.1 6.6 1.5 1.6 57 85.2 123.4 185.9s157.2 238.2 201.8 305.7l81 122.7 4.1-2.7c36.3-23.6 74.7-57.2 105.1-92.2 64.7-74.3 106.4-164.9 120.4-261.5 4.1-28.1 4.6-36.4 4.6-74.5s-.5-46.4-4.6-74.5c-27.8-192.1-164.5-353.5-349.9-413.3-32.7-10.6-67.5-17.9-106.5-22.3-9.6-1-75.7-2.1-84-1.3zm209.4 309.4c4.8 2.4 8.7 7 10.1 11.8.8 2.6 1 58.2.8 183.5l-.3 179.8-31.7-48.6-31.8-48.6v-130.7c0-84.5.4-132 1-134.3 1.6-5.6 5.1-10 9.9-12.6 4.1-2.1 5.6-2.3 21.3-2.3 14.8 0 17.4.2 20.7 2z" />
  <path
     d="m784.3 945.1c-3.5 2.2-4.6 3.7-1.5 2 2.2-1.3 5.8-4 5.2-4.1-.3 0-2 1-3.7 2.1zm-6.9 4.5c-1.8 1.4-1.8 1.5.4.4 1.2-.6 2.2-1.3 2.2-1.5 0-.8-.5-.6-2.6 1.1zm-5 3c-1.8 1.4-1.8 1.5.4.4 1.2-.6 2.2-1.3 2.2-1.5 0-.8-.5-.6-2.6 1.1zm-5 3c-1.8 1.4-1.8 1.5.4.4 1.2-.6 2.2-1.3 2.2-1.5 0-.8-.5-.6-2.6 1.1zm-7.6 4c-3.8 2-3.6 2.8.2.9 1.7-.9 3-1.8 3-2 0-.7-.1-.6-3.2 1.1z" />
  <path fill="#fff"
     d="m 462.62034,430.33446 c -17.27484,-2.6179 -39.88336,9.23978 -34.35028,29.44633 0.21524,175.46703 -0.42938,351.11428 0.32203,526.46893 15.05695,20.54808 43.70282,15.54768 65.01695,10.41807 16.9986,-3.63479 14.16695,-23.03442 14.17793,-36.07179 2.72525,-126.18329 3.36107,-252.39956 4.88986,-378.60052 137.60673,201.49365 271.7849,405.50552 419.26942,600.03242 25.83876,31.9504 46.92393,68.6051 77.06395,96.6964 5.4882,3.2946 3.2536,7.7879 0,0 5.1773,3.0618 40.8688,-17.1544 41.6206,-21.2471 5.2059,-5.6747 3.9232,2.8915 -6.2478,-7.1032 C 896.95573,1019.3388 743.94754,791.89059 593.15853,563.04278 563.22635,519.43319 535.28462,474.07509 502.72768,432.46441 c -13.12148,-2.64157 -26.78455,-1.98913 -40.10734,-2.12995 z"
     transform="matrix(0.75007322,0,0,0.75007322,-0.05,-0.2)" />
  <path fill="#fff"
     d="m 882.63729,411.52655 c -14.72085,-2.21306 -30.5035,7.22845 -34.93221,20.76836 0.10968,117.48348 -0.21842,235.03099 0.16385,352.47459 26.41512,39.06228 50.12638,80.31883 79.06214,117.49151 4.84024,-9.32911 0.96324,-24.2988 2.62703,-35.42858 1.67308,-146.92262 1.27994,-294.01607 0.84755,-440.84825 -10.63896,-17.27708 -30.31693,-14.63188 -47.76836,-14.45763 z"
     transform="matrix(0.75007322,0,0,0.75007322,-0.05,-0.2)" />
</svg>
