<?xml version="1.0" encoding="UTF-8" standalone="no"?>
<svg
   xmlns:dc="http://purl.org/dc/elements/1.1/"
   xmlns:cc="http://creativecommons.org/ns#"
   xmlns:rdf="http://www.w3.org/1999/02/22-rdf-syntax-ns#"
   xmlns:svg="http://www.w3.org/2000/svg"
   xmlns="http://www.w3.org/2000/svg"
   xmlns:sodipodi="http://sodipodi.sourceforge.net/DTD/sodipodi-0.dtd"
   xmlns:inkscape="http://www.inkscape.org/namespaces/inkscape"
   role="img"
   viewBox="0 0 55.352307 54"
   version="1.1"
   id="svg6"
   sodipodi:docname="github_icon.svg"
   inkscape:version="0.92.2 (5c3e80d, 2017-08-06)"
   width="55.352306"
   height="54">
  <metadata
     id="metadata12">
    <rdf:RDF>
      <cc:Work
         rdf:about="">
        <dc:format>image/svg+xml</dc:format>
        <dc:type
           rdf:resource="http://purl.org/dc/dcmitype/StillImage" />
        <dc:title />
      </cc:Work>
    </rdf:RDF>
  </metadata>
  <defs
     id="defs10" />
  <sodipodi:namedview
     pagecolor="#ffffff"
     bordercolor="#666666"
     borderopacity="1"
     objecttolerance="10"
     gridtolerance="10"
     guidetolerance="10"
     inkscape:pageopacity="0"
     inkscape:pageshadow="2"
     inkscape:window-width="1366"
     inkscape:window-height="703"
     id="namedview8"
     showgrid="false"
     inkscape:zoom="19.666667"
     inkscape:cx="1.0615175"
     inkscape:cy="6.6424454"
     inkscape:window-x="-4"
     inkscape:window-y="-4"
     inkscape:window-maximized="1"
     inkscape:current-layer="svg6" />
  <path
     inkscape:connector-curvature="0"
     d="m 55.351826,27.676269 q 0,9.045192 -5.279368,16.270539 -5.279368,7.225365 -13.639874,10.000184 -0.972991,0.180205 -1.423451,-0.252212 -0.450508,-0.432417 -0.450508,-1.081107 v -7.603734 q 0,-3.495554 -1.873898,-5.117202 2.054085,-0.216209 3.693762,-0.648626 1.63966,-0.432417 3.387432,-1.405429 1.747791,-0.972991 2.918982,-2.396445 1.171192,-1.423432 1.909939,-3.783836 0.738733,-2.360412 0.738733,-5.423523 0,-4.360434 -2.846892,-7.423552 1.333361,-3.279339 -0.288313,-7.351475 -1.009026,-0.324314 -2.918974,0.396412 -1.909938,0.720728 -3.315368,1.585608 l -1.369398,0.864834 q -3.351409,-0.936956 -6.919036,-0.936956 -3.567627,0 -6.919045,0.936956 -0.576616,-0.396409 -1.531546,-0.97299 -0.954973,-0.576617 -3.009058,-1.387402 -2.054092,-0.810828 -3.099159,-0.486514 -1.585615,4.072136 -0.252215,7.351472 -2.8469,3.063118 -2.8469,7.423553 0,3.06311 0.738729,5.405502 0.738733,2.342384 1.891927,3.783845 1.153172,1.441471 2.900944,2.414455 1.747791,0.972991 3.38745,1.405431 1.639668,0.432417 3.693761,0.648626 -1.441471,1.297316 -1.765802,3.711781 -0.75673,0.360316 -1.621639,0.540521 -0.864834,0.180205 -2.054093,0.180205 -1.189212,0 -2.360404,-0.77482 -1.17119,-0.774823 -2.00003,-2.25229 -0.684721,-1.153172 -1.747791,-1.873907 -1.063078,-0.720727 -1.7838048,-0.864924 L 8.5761918,38.451144 q -0.7567319,0 -1.045058,0.162115 -0.2883082,0.162198 -0.1802029,0.414421 0.1081042,0.252305 0.3243138,0.504517 0.2162096,0.252212 0.4684237,0.432417 l 0.2522151,0.180205 q 0.7928251,0.360411 1.5675956,1.36939 0.7748229,1.009025 1.1351509,1.837865 l 0.36041,0.828831 q 0.468514,1.369388 1.585615,2.216249 1.11714,0.846838 2.414448,1.081099 1.297325,0.234215 2.504557,0.252212 1.207224,0.01835 2.000032,-0.126111 l 0.828831,-0.144108 q 0,1.369389 0.01835,3.207255 0.01835,1.837875 0.01835,1.945979 0,0.648625 -0.468514,1.081099 -0.468513,0.432417 -1.441469,0.252306 Q 10.558736,51.172059 5.279368,43.946695 0,36.721348 0,27.676155 0,20.144489 3.7117724,13.784022 7.4235535,7.423544 13.78402,3.711763 20.144487,0 27.676154,0 q 7.531658,0 13.892133,3.711763 6.360466,3.711781 10.072239,10.072259 3.711781,6.360467 3.711781,13.892133 z"
     id="path2"
     style="fill:#666666;fill-opacity:1;stroke-width:8.73925686" />
</svg>
